<svg width="16" height="17" viewBox="0 0 16 17" fill="none" xmlns="http://www.w3.org/2000/svg">
<g clip-path="url(#clip0_1554_422)">
<path fill-rule="evenodd" clip-rule="evenodd" d="M7.33331 12.5C9.91064 12.5 12 10.4106 12 7.83331C12 5.25598 9.91064 3.16665 7.33331 3.16665C4.75598 3.16665 2.66665 5.25598 2.66665 7.83331C2.66665 10.4106 4.75598 12.5 7.33331 12.5ZM7.33331 13.8333C8.7425 13.8333 10.0382 13.3475 11.0621 12.5342C11.4427 12.232 11.7856 11.8845 12.0829 11.5C12.8669 10.486 13.3333 9.21414 13.3333 7.83331C13.3333 4.5196 10.647 1.83331 7.33331 1.83331C4.0196 1.83331 1.33331 4.5196 1.33331 7.83331C1.33331 11.147 4.0196 13.8333 7.33331 13.8333Z" fill="#737373"/>
<path d="M14.5506 14.2826C14.615 14.2183 14.6158 14.1142 14.5525 14.0488L12.0829 11.5C11.7856 11.8845 11.4427 12.232 11.0621 12.5342L13.5488 15.0475C13.6138 15.1132 13.7198 15.1135 13.7851 15.0482L14.5506 14.2826Z" fill="#737373"/>
</g>
<defs>
<clipPath id="clip0_1554_422">
<rect width="16" height="16" fill="white" transform="translate(0 0.5)"/>
</clipPath>
</defs>
</svg>
