<svg width="25" height="24" viewBox="0 0 25 24" fill="none" xmlns="http://www.w3.org/2000/svg">
<g opacity="0.89">
<path d="M4.82317 6.90853C4.74365 6.362 5.12224 5.85449 5.66877 5.77497L13.5854 4.62307C14.1319 4.54355 14.6394 4.92214 14.719 5.46867L14.8999 6.71214H16.921L16.5541 4.19111C16.3951 3.09805 15.3801 2.34088 14.287 2.49993L4.39121 3.93979C3.29815 4.09884 2.54098 5.11387 2.70003 6.20693L4.13989 16.1027C4.28486 17.099 5.14093 17.8162 6.11905 17.815V15.8871C6.11905 15.8389 6.11557 15.7908 6.10863 15.7431L4.82317 6.90853Z" fill="#E6E6E6"/>
<path d="M12.421 17.6159V11.3841C12.421 11.2223 12.6031 11.1275 12.7356 11.2203L17.1869 14.3362C17.3006 14.4158 17.3006 14.5842 17.1869 14.6638L12.7356 17.7797C12.6031 17.8725 12.421 17.7777 12.421 17.6159Z" fill="#E6E6E6"/>
<path fill-rule="evenodd" clip-rule="evenodd" d="M19.421 7.5H9.42096C8.31639 7.5 7.42096 8.39543 7.42096 9.5V19.5C7.42096 20.6046 8.31639 21.5 9.42096 21.5H19.421C20.5255 21.5 21.421 20.6046 21.421 19.5V9.5C21.421 8.39543 20.5255 7.5 19.421 7.5ZM18.421 9.5L10.421 9.5C9.86867 9.5 9.42096 9.94772 9.42096 10.5V18.5C9.42096 19.0523 9.86867 19.5 10.421 19.5H18.421C18.9732 19.5 19.421 19.0523 19.421 18.5V10.5C19.421 9.94771 18.9732 9.5 18.421 9.5Z" fill="#E6E6E6"/>
<path d="M5.59677 5.28018C4.77698 5.39946 4.2091 6.16073 4.32838 6.98053L5.61384 15.8151C5.61731 15.839 5.61905 15.863 5.61905 15.8871V17.2294C5.11129 17.0494 4.71762 16.6008 4.63468 16.0307L3.19482 6.13493C3.07553 5.31514 3.64341 4.55387 4.46321 4.43458L14.359 2.99472C15.1788 2.87543 15.9401 3.44331 16.0594 4.26311L16.3429 6.21214H15.3324L15.2138 5.39667C15.0945 4.57688 14.3332 4.009 13.5134 4.12828L5.59677 5.28018ZM16.5491 14.5L12.921 17.0397V11.9603L16.5491 14.5ZM16.9002 14.7458C16.9 14.7456 16.8998 14.7455 16.8996 14.7454L16.9002 14.7458ZM16.8996 14.2546C16.8998 14.2545 16.9 14.2544 16.9002 14.2542L16.8996 14.2546ZM9.42096 8H19.421C20.2494 8 20.921 8.67157 20.921 9.5V19.5C20.921 20.3284 20.2494 21 19.421 21H9.42096C8.59253 21 7.92096 20.3284 7.92096 19.5V9.5C7.92096 8.67157 8.59253 8 9.42096 8ZM18.421 9L10.421 9C9.59253 9 8.92096 9.67157 8.92096 10.5V18.5C8.92096 19.3284 9.59253 20 10.421 20H18.421C19.2494 20 19.921 19.3284 19.921 18.5V10.5C19.921 9.67157 19.2494 9 18.421 9Z" stroke="#E6E6E6"/>
</g>
</svg>
