<svg width="25" height="24" viewBox="0 0 25 24" fill="none" xmlns="http://www.w3.org/2000/svg">
<g clip-path="url(#clip0_1561_1243)">
<path fill-rule="evenodd" clip-rule="evenodd" d="M11.8 18C15.666 18 18.8 14.866 18.8 11C18.8 7.13401 15.666 4 11.8 4C7.93403 4 4.80002 7.13401 4.80002 11C4.80002 14.866 7.93403 18 11.8 18ZM11.8 20C13.9138 20 15.8574 19.2713 17.3932 18.0514C17.964 17.598 18.4785 17.0768 18.9245 16.5C20.1004 14.9791 20.8 13.0712 20.8 11C20.8 6.02944 16.7706 2 11.8 2C6.82946 2 2.80002 6.02944 2.80002 11C2.80002 15.9706 6.82946 20 11.8 20Z" fill="#737373"/>
<path d="M22.626 20.674C22.7226 20.5775 22.7238 20.4213 22.6288 20.3233L18.9245 16.5C18.4785 17.0768 17.964 17.598 17.3932 18.0514L21.1232 21.8213C21.2207 21.9199 21.3797 21.9203 21.4777 21.8223L22.626 20.674Z" fill="#737373"/>
</g>
<defs>
<clipPath id="clip0_1561_1243">
<rect width="24" height="24" fill="white" transform="translate(0.800018)"/>
</clipPath>
</defs>
</svg>
